<svg width="500" height="500" viewBox="0 0 500 500" fill="none" xmlns="http://www.w3.org/2000/svg">
<path d="M187.555 233.172H189.112L189.289 233.597L198.599 254.765L207.838 233.597L208.015 233.172H209.572L209.112 234.164L199.236 256.819L199.059 257.243H198.139L197.961 256.819L188.015 234.164L187.555 233.172Z" fill="white"/>
<path d="M251.094 233.172V234.588H250.386H235.519V244.5H246.208H246.917V245.917H246.208H235.519V255.827H250.386H251.094V257.243H250.386H234.811H234.102V256.536V245.917V244.5V233.88V233.172H234.811H250.386H251.094Z" fill="white"/>
<path d="M278.846 257.243H277.43V256.536V233.88V233.173H278.492L278.704 233.456L293.678 254.34L293.713 233.88V233.173H295.13V233.88L295.094 256.536V257.243H294.032L293.819 256.961L278.846 236.076V256.536V257.243Z" fill="white"/>
<path d="M339.872 233.172V234.588H339.164H324.297V244.5H334.987H335.695V245.917H334.987H324.297V255.827H339.164H339.872V257.243H339.164H323.588H322.881V256.536V245.917V244.5V233.88V233.172H323.588H339.164H339.872Z" fill="white"/>
<path d="M364.012 234.588V233.172H364.72H379.021H379.73H380.332L379.622 234.27L365.393 255.827H379.659H380.368V257.243H379.659H364.084H363.376H362.773L363.482 256.146L377.713 234.588H364.72H364.012Z" fill="white"/>
<path d="M403.623 257.243H402.065L402.526 256.253L412.438 233.597L412.614 233.173H413.535L413.712 233.597L423.623 256.253L424.083 257.243H422.527L422.348 256.819L413.075 235.65L403.8 256.819L403.623 257.243Z" fill="white"/>
<path d="M166.231 250.6C166.231 274.82 146.595 294.457 122.373 294.457C98.1525 294.457 78.5171 274.82 78.5171 250.6C78.5171 226.378 98.1525 206.742 122.373 206.742C146.595 206.742 166.231 226.378 166.231 250.6Z" stroke="white" stroke-width="0.75431" stroke-linecap="round" stroke-linejoin="round"/>
<path d="M169.864 250.377C169.864 276.543 148.628 297.755 122.432 297.755C96.2361 297.755 75 276.543 75 250.377C75 224.212 96.2361 203 122.432 203C148.628 203 169.864 224.212 169.864 250.377Z" stroke="#7A7A7A" stroke-width="1.50862"/>
<path d="M245.212 275.813C245.624 275.813 246.013 275.733 246.381 275.572C246.749 275.411 247.068 275.195 247.339 274.922C247.612 274.651 247.828 274.332 247.989 273.964C248.15 273.597 248.23 273.207 248.23 272.794C248.23 272.382 248.15 271.992 247.989 271.624C247.828 271.257 247.612 270.937 247.339 270.666C247.068 270.393 246.749 270.177 246.381 270.016C246.013 269.856 245.624 269.776 245.212 269.776C244.799 269.776 244.408 269.856 244.042 270.016C243.674 270.177 243.354 270.393 243.084 270.666C242.811 270.937 242.595 271.257 242.434 271.624C242.273 271.992 242.193 272.382 242.193 272.794C242.193 273.207 242.273 273.597 242.434 273.964C242.595 274.332 242.811 274.651 243.084 274.922C243.354 275.195 243.674 275.411 244.042 275.572C244.408 275.733 244.799 275.813 245.212 275.813ZM245.212 269.021C245.734 269.021 246.228 269.118 246.69 269.315C247.153 269.512 247.554 269.777 247.891 270.114C248.228 270.452 248.494 270.851 248.69 271.314C248.887 271.778 248.985 272.271 248.985 272.794C248.985 273.328 248.887 273.822 248.69 274.282C248.494 274.739 248.228 275.136 247.891 275.474C247.554 275.81 247.153 276.078 246.69 276.273C246.228 276.469 245.734 276.568 245.212 276.568C244.678 276.568 244.183 276.469 243.724 276.273C243.267 276.078 242.869 275.81 242.531 275.474C242.194 275.136 241.928 274.739 241.733 274.282C241.535 273.822 241.438 273.328 241.438 272.794V267.661H242.193V270.53C242.535 270.077 242.972 269.711 243.506 269.435C244.039 269.159 244.608 269.021 245.212 269.021Z" fill="white"/>
<path d="M261.212 275.813C261.625 275.813 262.015 275.733 262.382 275.572C262.749 275.411 263.069 275.195 263.341 274.922C263.612 274.651 263.829 274.332 263.99 273.964C264.152 273.597 264.232 273.207 264.232 272.794C264.232 272.382 264.152 271.992 263.99 271.624C263.829 271.257 263.612 270.937 263.341 270.666C263.069 270.393 262.749 270.177 262.382 270.016C262.015 269.856 261.625 269.776 261.212 269.776C260.799 269.776 260.41 269.856 260.043 270.016C259.675 270.177 259.356 270.393 259.084 270.666C258.813 270.937 258.596 271.257 258.435 271.624C258.274 271.992 258.193 272.382 258.193 272.794C258.193 273.207 258.274 273.597 258.435 273.964C258.596 274.332 258.813 274.651 259.084 274.922C259.356 275.195 259.675 275.411 260.043 275.572C260.41 275.733 260.799 275.813 261.212 275.813ZM261.212 269.021C261.736 269.021 262.23 269.118 262.692 269.315C263.155 269.512 263.555 269.777 263.892 270.114C264.229 270.452 264.496 270.851 264.692 271.314C264.889 271.778 264.987 272.271 264.987 272.794V276.568H264.232V275.059C263.889 275.512 263.452 275.876 262.918 276.153C262.385 276.43 261.816 276.568 261.212 276.568C260.679 276.568 260.183 276.469 259.726 276.273C259.267 276.078 258.87 275.81 258.533 275.474C258.196 275.136 257.929 274.739 257.733 274.282C257.537 273.822 257.439 273.328 257.439 272.794C257.439 272.271 257.537 271.778 257.733 271.314C257.929 270.851 258.196 270.452 258.533 270.114C258.87 269.777 259.267 269.512 259.726 269.315C260.183 269.118 260.679 269.021 261.212 269.021Z" fill="white"/>
<path d="M277.213 269.021C277.728 269.021 278.21 269.118 278.663 269.315C279.116 269.511 279.516 269.777 279.863 270.114C280.21 270.452 280.484 270.851 280.686 271.315C280.887 271.778 280.987 272.271 280.987 272.794H280.232C280.232 272.382 280.152 271.991 279.992 271.624C279.831 271.257 279.614 270.937 279.343 270.666C279.071 270.394 278.751 270.177 278.384 270.016C278.017 269.856 277.626 269.776 277.213 269.776C276.801 269.776 276.412 269.856 276.044 270.016C275.676 270.177 275.357 270.394 275.086 270.666C274.813 270.937 274.597 271.257 274.436 271.624C274.275 271.991 274.195 272.382 274.195 272.794V276.568H273.44V272.794C273.44 272.271 273.538 271.778 273.735 271.315C273.931 270.851 274.197 270.452 274.534 270.114C274.872 269.777 275.269 269.511 275.727 269.315C276.185 269.118 276.68 269.021 277.213 269.021Z" fill="white"/>
<path d="M293.214 275.813C293.627 275.813 294.018 275.733 294.384 275.572C294.752 275.411 295.071 275.195 295.344 274.922C295.614 274.651 295.831 274.332 295.992 273.964C296.153 273.597 296.233 273.207 296.233 272.794C296.233 272.382 296.153 271.992 295.992 271.624C295.831 271.257 295.614 270.937 295.344 270.666C295.071 270.393 294.752 270.177 294.384 270.016C294.018 269.856 293.627 269.776 293.214 269.776C292.802 269.776 292.412 269.856 292.045 270.016C291.677 270.177 291.358 270.393 291.086 270.666C290.814 270.937 290.598 271.257 290.437 271.624C290.275 271.992 290.195 272.382 290.195 272.794C290.195 273.207 290.275 273.597 290.437 273.964C290.598 274.332 290.814 274.651 291.086 274.922C291.358 275.195 291.677 275.411 292.045 275.572C292.412 275.733 292.802 275.813 293.214 275.813ZM293.214 269.021C293.738 269.021 294.23 269.118 294.694 269.315C295.157 269.512 295.556 269.777 295.894 270.114C296.231 270.452 296.498 270.851 296.695 271.314C296.891 271.778 296.988 272.271 296.988 272.794C296.988 273.328 296.891 273.822 296.695 274.282C296.498 274.739 296.231 275.136 295.894 275.474C295.556 275.81 295.157 276.078 294.694 276.273C294.23 276.469 293.738 276.568 293.214 276.568C292.68 276.568 292.185 276.469 291.727 276.273C291.27 276.078 290.872 275.81 290.535 275.474C290.198 275.136 289.931 274.739 289.735 274.282C289.539 273.822 289.441 273.328 289.441 272.794V267.661H290.195V270.53C290.537 270.077 290.975 269.711 291.509 269.435C292.042 269.159 292.611 269.021 293.214 269.021Z" fill="white"/>
<path d="M309.216 269.776C308.833 269.776 308.474 269.843 308.137 269.979C307.799 270.114 307.495 270.298 307.224 270.53C306.951 270.762 306.728 271.041 306.551 271.367C306.375 271.695 306.257 272.045 306.197 272.417H312.234C312.175 272.045 312.057 271.695 311.88 271.367C311.704 271.041 311.48 270.762 311.209 270.53C310.936 270.298 310.629 270.114 310.288 269.979C309.946 269.843 309.588 269.776 309.216 269.776ZM309.216 275.813C309.86 275.813 310.429 275.642 310.923 275.3C311.415 274.958 311.777 274.5 312.009 273.926H312.839C312.708 274.309 312.524 274.661 312.287 274.983C312.051 275.305 311.775 275.582 311.457 275.813C311.141 276.046 310.791 276.229 310.408 276.364C310.026 276.5 309.628 276.568 309.216 276.568C308.682 276.568 308.188 276.469 307.728 276.273C307.271 276.077 306.874 275.81 306.536 275.474C306.199 275.136 305.933 274.739 305.737 274.282C305.541 273.823 305.443 273.328 305.443 272.794C305.443 272.271 305.541 271.778 305.737 271.314C305.933 270.851 306.199 270.452 306.536 270.114C306.874 269.777 307.271 269.511 307.728 269.315C308.188 269.118 308.682 269.021 309.216 269.021C309.739 269.021 310.232 269.118 310.696 269.315C311.159 269.511 311.558 269.777 311.896 270.114C312.233 270.452 312.499 270.851 312.695 271.314C312.892 271.778 312.99 272.271 312.99 272.794V273.172H311.631H306.197C306.257 273.555 306.375 273.906 306.551 274.228C306.728 274.55 306.951 274.827 307.224 275.059C307.495 275.29 307.799 275.474 308.137 275.609C308.474 275.745 308.833 275.813 309.216 275.813Z" fill="white"/>
<path d="M325.217 275.813C325.629 275.813 326.019 275.733 326.387 275.572C326.753 275.411 327.073 275.195 327.345 274.922C327.617 274.651 327.833 274.332 327.995 273.964C328.155 273.597 328.235 273.207 328.235 272.794C328.235 272.382 328.155 271.992 327.995 271.624C327.833 271.257 327.617 270.937 327.345 270.666C327.073 270.393 326.753 270.177 326.387 270.016C326.019 269.856 325.629 269.776 325.217 269.776C324.803 269.776 324.415 269.856 324.047 270.016C323.679 270.177 323.36 270.393 323.089 270.666C322.816 270.937 322.599 271.257 322.439 271.624C322.278 271.992 322.197 272.382 322.197 272.794C322.197 273.207 322.278 273.597 322.439 273.964C322.599 274.332 322.816 274.651 323.089 274.922C323.36 275.195 323.679 275.411 324.047 275.572C324.415 275.733 324.803 275.813 325.217 275.813ZM325.217 269.021C325.74 269.021 326.233 269.118 326.697 269.315C327.159 269.512 327.558 269.777 327.896 270.114C328.233 270.452 328.499 270.851 328.696 271.314C328.892 271.778 328.99 272.271 328.99 272.794V276.568H328.235V275.059C327.894 275.512 327.455 275.876 326.923 276.153C326.39 276.43 325.821 276.568 325.217 276.568C324.683 276.568 324.188 276.469 323.729 276.273C323.272 276.078 322.875 275.81 322.537 275.474C322.2 275.136 321.933 274.739 321.738 274.282C321.541 273.822 321.443 273.328 321.443 272.794C321.443 272.271 321.541 271.778 321.738 271.314C321.933 270.851 322.2 270.452 322.537 270.114C322.875 269.777 323.272 269.512 323.729 269.315C324.188 269.118 324.683 269.021 325.217 269.021Z" fill="white"/>
<path d="M341.218 269.021C341.732 269.021 342.214 269.118 342.668 269.315C343.12 269.511 343.521 269.777 343.867 270.114C344.215 270.452 344.489 270.851 344.69 271.315C344.891 271.778 344.992 272.271 344.992 272.794H344.237C344.237 272.382 344.157 271.991 343.996 271.624C343.835 271.257 343.619 270.937 343.347 270.666C343.075 270.394 342.755 270.177 342.389 270.016C342.02 269.856 341.631 269.776 341.218 269.776C340.805 269.776 340.416 269.856 340.049 270.016C339.681 270.177 339.361 270.394 339.09 270.666C338.818 270.937 338.601 271.257 338.441 271.624C338.279 271.991 338.199 272.382 338.199 272.794V276.568H337.444V272.794C337.444 272.271 337.543 271.778 337.739 271.315C337.934 270.851 338.201 270.452 338.538 270.114C338.877 269.777 339.273 269.511 339.73 269.315C340.19 269.118 340.685 269.021 341.218 269.021Z" fill="white"/>
<path d="M353.446 269.021H354.2V276.568H353.446V269.021ZM353.446 267.661H354.2V268.417H353.446V267.661Z" fill="white"/>
<path d="M366.427 275.813C366.839 275.813 367.229 275.733 367.597 275.572C367.963 275.411 368.283 275.195 368.556 274.922C368.827 274.651 369.044 274.332 369.205 273.964C369.366 273.597 369.446 273.207 369.446 272.794C369.446 272.382 369.366 271.992 369.205 271.624C369.044 271.257 368.827 270.937 368.556 270.666C368.283 270.393 367.963 270.177 367.597 270.016C367.229 269.856 366.839 269.776 366.427 269.776C366.014 269.776 365.625 269.856 365.257 270.016C364.89 270.177 364.57 270.393 364.299 270.666C364.026 270.937 363.809 271.257 363.65 271.624C363.488 271.992 363.407 272.382 363.407 272.794C363.407 273.207 363.488 273.597 363.65 273.964C363.809 274.332 364.026 274.651 364.299 274.922C364.57 275.195 364.89 275.411 365.257 275.572C365.625 275.733 366.014 275.813 366.427 275.813ZM366.427 269.021C366.95 269.021 367.443 269.118 367.907 269.315C368.369 269.512 368.768 269.777 369.106 270.114C369.444 270.452 369.71 270.851 369.907 271.314C370.103 271.778 370.201 272.271 370.201 272.794V276.568H369.446V275.059C369.104 275.512 368.666 275.876 368.133 276.153C367.6 276.43 367.031 276.568 366.427 276.568C365.893 276.568 365.398 276.469 364.939 276.273C364.482 276.078 364.085 275.81 363.747 275.474C363.41 275.136 363.143 274.739 362.948 274.282C362.752 273.822 362.653 273.328 362.653 272.794C362.653 272.271 362.752 271.778 362.948 271.314C363.143 270.851 363.41 270.452 363.747 270.114C364.085 269.777 364.482 269.512 364.939 269.315C365.398 269.118 365.893 269.021 366.427 269.021Z" fill="white"/>
<path d="M232.477 272.021H186.638V271.103H232.477V272.021Z" fill="#7A7A7A" stroke="#7A7A7A" stroke-width="0.565733" stroke-linecap="round" stroke-linejoin="round"/>
<path d="M425 272.479H379.161V271.562H425V272.479Z" fill="#7A7A7A" stroke="#7A7A7A" stroke-width="0.565733" stroke-linecap="round" stroke-linejoin="round"/>
<path d="M98.0063 228.203H101.454L101.845 229.143L122.452 275.997L142.902 229.143L143.294 228.203H146.742L145.722 230.396L123.863 280.542L123.471 281.483H121.434L121.041 280.542L99.0239 230.396L98.0063 228.203Z" fill="white"/>
</svg>
